<svg width="421" height="389" viewBox="0 0 421 389" fill="none" xmlns="http://www.w3.org/2000/svg">
<g clip-path="url(#clip0)">
<path d="M207.96 25.8601C208.158 25.866 208.352 25.7958 208.501 25.6638C208.649 25.5318 208.742 25.3481 208.76 25.1501C208.805 24.9762 208.787 24.7917 208.708 24.6302C208.629 24.4687 208.495 24.3409 208.33 24.2701C208.27 24.2396 208.206 24.2194 208.14 24.2101C205.54 23.5801 203.48 20.4301 200.78 20.3901C198.46 20.3901 196.78 19.9601 195.63 17.7401C195.175 16.7761 194.582 15.8835 193.87 15.0901C193.206 14.4571 192.394 14.0001 191.509 13.7608C190.623 13.5216 189.692 13.5076 188.8 13.7201C187.47 13.9201 186.21 13.8801 184.88 13.9601C184.14 13.9601 182.6 10.8201 182.26 10.2701C179.41 5.66008 176.68 0.720081 170.69 0.0900809C168.199 -0.150442 165.687 0.18232 163.345 1.06287C161.004 1.94341 158.895 3.34837 157.18 5.17008C154.56 2.72008 152.36 0.11008 148.35 2.05008C146.291 3.00622 144.652 4.68102 143.74 6.76008C143.234 7.98661 142.535 9.12432 141.67 10.1301C140.39 11.4901 137.84 10.7001 136.25 10.6801C134.17 10.6801 132.8 12.3401 131.63 13.8101C130.18 15.6101 128.85 15.7401 126.73 15.0701C125.933 14.8357 125.082 14.8744 124.31 15.1801C120.47 17.2501 119.56 23.7701 114.55 24.1801C114.344 24.2026 114.154 24.3003 114.016 24.4544C113.878 24.6085 113.801 24.8081 113.801 25.0151C113.801 25.222 113.878 25.4217 114.016 25.5758C114.154 25.7299 114.344 25.8275 114.55 25.8501H207.96V25.8601Z" fill="#E6F5F6"/>
<path d="M285.57 58.3401H345.15C345.227 58.3622 345.309 58.366 345.388 58.3513C345.467 58.3366 345.541 58.3037 345.606 58.2552C345.67 58.2067 345.722 58.144 345.758 58.072C345.794 57.9999 345.813 57.9206 345.813 57.8401C345.813 57.7596 345.794 57.6802 345.758 57.6082C345.722 57.5361 345.67 57.4734 345.606 57.425C345.541 57.3765 345.467 57.3436 345.388 57.3289C345.309 57.3141 345.227 57.318 345.15 57.3401C341.94 57.0801 341.35 53.0601 338.89 51.7901C338.391 51.5972 337.843 51.5726 337.33 51.7201C335.97 52.1301 335.12 52.0501 334.19 50.9401C333.43 50.0401 332.56 49.0001 331.19 49.0101C330.19 49.0101 328.53 49.5101 327.71 48.6701C327.158 48.0558 326.709 47.3569 326.38 46.6001C325.773 45.2953 324.704 44.2619 323.38 43.7001C320.81 42.4901 319.38 44.1101 317.71 45.6101C316.586 44.4798 315.225 43.6129 313.726 43.0717C312.227 42.5304 310.626 42.3284 309.04 42.4801C305.19 42.8701 303.44 45.9201 301.61 48.7601C301.39 49.1001 300.4 51.0601 299.93 51.0301C299.07 51.0301 298.26 51.0301 297.41 50.8901C296.841 50.7538 296.247 50.7591 295.68 50.9056C295.114 51.052 294.592 51.3351 294.16 51.7301C293.699 52.21 293.318 52.7602 293.03 53.3601C292.31 54.7301 291.2 54.9801 289.72 55.0001C287.98 55.0001 286.66 57.0001 284.99 57.3501H284.87C284.764 57.3887 284.677 57.4656 284.625 57.5656C284.573 57.6656 284.56 57.7814 284.59 57.8901C284.602 58.0147 284.662 58.1298 284.757 58.2116C284.852 58.2934 284.975 58.3358 285.1 58.3301L285.57 58.3401Z" fill="#E6F5F6"/>
<path d="M95.1101 196.38H95.0201C93.1243 196.147 91.2679 195.663 89.5001 194.94C87.9801 194.28 87.0501 192.82 85.5001 192.16C84.4001 191.68 82.9401 192.04 82.2801 190.93C81.4701 189.55 81.2201 187.93 80.4701 186.47C79.1701 184 76.3301 183.33 73.7901 183.7C70.7901 184.15 68.9601 186.62 67.1801 188.87C66.0001 186.96 64.2901 185.56 61.8401 186.01C58.7301 186.58 57.8401 188.89 56.6701 191.4C53.5801 189.17 49.6101 189.75 48.6101 193.77C46.4401 193.64 43.5101 194.48 43.3701 196.94C43.3727 197.088 43.4325 197.229 43.537 197.333C43.6414 197.438 43.7824 197.497 43.9301 197.5H94.9301C95.069 197.503 95.2034 197.451 95.3044 197.355C95.4054 197.26 95.4649 197.129 95.4701 196.99C95.493 196.926 95.5016 196.858 95.4953 196.791C95.4889 196.724 95.4678 196.659 95.4335 196.6C95.3991 196.542 95.3523 196.492 95.2964 196.454C95.2405 196.416 95.1769 196.391 95.1101 196.38Z" fill="#E6F5F6"/>
<path d="M311.62 145.35C311.621 145.459 311.644 145.567 311.688 145.668C311.732 145.768 311.795 145.859 311.874 145.934C311.953 146.01 312.047 146.068 312.149 146.107C312.252 146.146 312.361 146.164 312.47 146.16H393.02C393.256 146.16 393.482 146.066 393.649 145.899C393.816 145.732 393.91 145.506 393.91 145.27C393.68 141.39 389.05 140.06 385.63 140.27C384.05 133.91 377.79 132.99 372.9 136.52C371 132.52 369.65 128.91 364.74 128.01C360.87 127.29 358.17 129.51 356.3 132.52C353.49 128.96 350.69 125.07 345.86 124.36C341.86 123.78 337.37 124.83 335.32 128.73C334.14 130.97 333.73 133.6 332.45 135.78C331.45 137.54 329.11 136.96 327.38 137.71C324.95 138.71 323.48 141.06 321.08 142.11C318.286 143.248 315.354 144.012 312.36 144.38C312.31 144.374 312.26 144.374 312.21 144.38C312.1 144.391 311.995 144.427 311.902 144.485C311.808 144.544 311.73 144.623 311.673 144.718C311.616 144.812 311.581 144.918 311.572 145.028C311.563 145.137 311.579 145.248 311.62 145.35V145.35Z" fill="#E6F5F6"/>
<path d="M89.4344 153C89.3475 153 89.2779 152.974 89.2258 152.922C89.1736 152.861 89.1475 152.787 89.1475 152.7V144.185C89.1475 144.089 89.1736 144.015 89.2258 143.963C89.2779 143.902 89.3475 143.872 89.4344 143.872H92.7335C93.7159 143.872 94.4852 144.111 95.0416 144.589C95.6067 145.059 95.8892 145.745 95.8892 146.65C95.8892 147.554 95.6067 148.24 95.0416 148.71C94.4852 149.179 93.7159 149.414 92.7335 149.414H90.3863V152.7C90.3863 152.787 90.3559 152.861 90.295 152.922C90.2429 152.974 90.1733 153 90.0864 153H89.4344ZM92.6683 148.358C93.981 148.358 94.6374 147.788 94.6374 146.65C94.6374 146.093 94.4722 145.667 94.1418 145.372C93.8202 145.076 93.329 144.928 92.6683 144.928H90.3863V148.358H92.6683ZM96.3532 153C96.2837 153 96.2228 152.974 96.1707 152.922C96.1185 152.87 96.0924 152.809 96.0924 152.739L96.1185 152.596L99.3524 144.159C99.422 143.968 99.5611 143.872 99.7697 143.872H100.604C100.813 143.872 100.952 143.968 101.022 144.159L104.255 152.596L104.282 152.739C104.282 152.809 104.251 152.87 104.19 152.922C104.138 152.974 104.077 153 104.008 153H103.395C103.308 153 103.234 152.978 103.173 152.935C103.121 152.883 103.086 152.83 103.069 152.778L102.339 150.901H98.0224L97.3052 152.778C97.2356 152.926 97.1269 153 96.9792 153H96.3532ZM98.4005 149.818H101.973L100.187 145.137L98.4005 149.818ZM108.823 153.13C107.693 153.13 106.815 152.817 106.189 152.192C105.563 151.566 105.228 150.718 105.185 149.649C105.176 149.388 105.172 148.979 105.172 148.423C105.172 147.858 105.176 147.449 105.185 147.197C105.22 146.137 105.55 145.298 106.176 144.68C106.811 144.055 107.693 143.742 108.823 143.742C109.588 143.742 110.236 143.881 110.766 144.159C111.296 144.437 111.696 144.772 111.966 145.163C112.235 145.545 112.379 145.902 112.396 146.232V146.258C112.396 146.328 112.366 146.389 112.305 146.441C112.253 146.484 112.192 146.506 112.122 146.506H111.392C111.314 146.506 111.253 146.489 111.209 146.454C111.175 146.419 111.14 146.354 111.105 146.258C110.966 145.85 110.709 145.506 110.336 145.228C109.962 144.95 109.458 144.811 108.823 144.811C108.093 144.811 107.519 145.011 107.102 145.411C106.684 145.811 106.463 146.428 106.437 147.262C106.428 147.515 106.424 147.901 106.424 148.423C106.424 148.936 106.428 149.323 106.437 149.584C106.463 150.427 106.684 151.048 107.102 151.448C107.519 151.848 108.093 152.048 108.823 152.048C109.562 152.048 110.153 151.848 110.596 151.448C111.04 151.04 111.262 150.431 111.262 149.623V149.062H109.266C109.179 149.062 109.106 149.031 109.045 148.971C108.993 148.91 108.966 148.836 108.966 148.749V148.358C108.966 148.271 108.993 148.197 109.045 148.136C109.106 148.075 109.179 148.045 109.266 148.045H112.187C112.283 148.045 112.357 148.075 112.409 148.136C112.47 148.188 112.5 148.262 112.5 148.358V149.597C112.5 150.301 112.353 150.922 112.057 151.461C111.77 151.992 111.348 152.405 110.792 152.7C110.236 152.987 109.579 153.13 108.823 153.13ZM114.661 153C114.574 153 114.505 152.974 114.453 152.922C114.4 152.861 114.374 152.787 114.374 152.7V144.185C114.374 144.089 114.4 144.015 114.453 143.963C114.505 143.902 114.574 143.872 114.661 143.872H120.021C120.116 143.872 120.19 143.902 120.242 143.963C120.303 144.015 120.334 144.089 120.334 144.185V144.654C120.334 144.741 120.303 144.811 120.242 144.863C120.19 144.915 120.116 144.941 120.021 144.941H115.574V147.849H119.734C119.829 147.849 119.903 147.88 119.955 147.94C120.016 147.993 120.047 148.067 120.047 148.162V148.606C120.047 148.692 120.016 148.766 119.955 148.827C119.903 148.879 119.829 148.905 119.734 148.905H115.574V151.918H120.125C120.221 151.918 120.294 151.948 120.347 152.009C120.407 152.061 120.438 152.135 120.438 152.231V152.7C120.438 152.787 120.407 152.861 120.347 152.922C120.286 152.974 120.212 153 120.125 153H114.661ZM125.766 153C125.679 153 125.609 152.974 125.557 152.922C125.505 152.861 125.479 152.787 125.479 152.7V144.185C125.479 144.089 125.505 144.015 125.557 143.963C125.609 143.902 125.679 143.872 125.766 143.872H126.339C126.426 143.872 126.491 143.889 126.535 143.924C126.578 143.959 126.622 144.002 126.665 144.055L131.034 150.783V144.185C131.034 144.089 131.06 144.015 131.112 143.963C131.173 143.902 131.247 143.872 131.334 143.872H131.92C132.016 143.872 132.09 143.902 132.142 143.963C132.203 144.015 132.233 144.089 132.233 144.185V152.687C132.233 152.774 132.203 152.848 132.142 152.909C132.09 152.97 132.02 153 131.933 153H131.347C131.199 153 131.095 152.939 131.034 152.817L126.665 146.154V152.7C126.665 152.787 126.635 152.861 126.574 152.922C126.522 152.974 126.452 153 126.365 153H125.766ZM137.78 153.13C136.65 153.13 135.776 152.835 135.159 152.244C134.542 151.644 134.216 150.744 134.181 149.544C134.172 149.284 134.168 148.914 134.168 148.436C134.168 147.958 134.172 147.593 134.181 147.341C134.216 146.158 134.551 145.263 135.185 144.654C135.828 144.046 136.693 143.742 137.78 143.742C138.867 143.742 139.727 144.046 140.362 144.654C140.997 145.263 141.331 146.158 141.366 147.341C141.383 147.845 141.392 148.21 141.392 148.436C141.392 148.653 141.383 149.023 141.366 149.544C141.331 150.744 141.005 151.644 140.388 152.244C139.78 152.835 138.91 153.13 137.78 153.13ZM137.78 152.048C138.476 152.048 139.032 151.839 139.449 151.422C139.866 150.996 140.093 150.349 140.127 149.479C140.145 148.958 140.153 148.61 140.153 148.436C140.153 148.245 140.145 147.897 140.127 147.393C140.093 146.523 139.866 145.876 139.449 145.45C139.032 145.024 138.476 144.811 137.78 144.811C137.085 144.811 136.524 145.024 136.098 145.45C135.681 145.876 135.459 146.523 135.433 147.393C135.424 147.645 135.42 147.993 135.42 148.436C135.42 148.871 135.424 149.218 135.433 149.479C135.459 150.349 135.681 150.996 136.098 151.422C136.515 151.839 137.076 152.048 137.78 152.048ZM145.424 153C145.337 153 145.263 152.974 145.202 152.922C145.15 152.861 145.124 152.787 145.124 152.7V144.993H142.607C142.52 144.993 142.446 144.967 142.385 144.915C142.333 144.854 142.307 144.78 142.307 144.694V144.185C142.307 144.089 142.333 144.015 142.385 143.963C142.446 143.902 142.52 143.872 142.607 143.872H148.866C148.962 143.872 149.036 143.902 149.088 143.963C149.14 144.015 149.166 144.089 149.166 144.185V144.694C149.166 144.78 149.136 144.854 149.075 144.915C149.023 144.967 148.953 144.993 148.866 144.993H146.362V152.7C146.362 152.787 146.332 152.861 146.271 152.922C146.21 152.974 146.136 153 146.049 153H145.424ZM153.819 153C153.732 153 153.663 152.974 153.611 152.922C153.559 152.861 153.533 152.787 153.533 152.7V144.185C153.533 144.089 153.559 144.015 153.611 143.963C153.663 143.902 153.732 143.872 153.819 143.872H159.114C159.209 143.872 159.283 143.902 159.335 143.963C159.396 144.015 159.427 144.089 159.427 144.185V144.667C159.427 144.754 159.396 144.828 159.335 144.889C159.283 144.941 159.209 144.967 159.114 144.967H154.745V148.058H158.853C158.948 148.058 159.022 148.088 159.075 148.149C159.135 148.201 159.166 148.271 159.166 148.358V148.853C159.166 148.94 159.135 149.014 159.075 149.075C159.014 149.127 158.94 149.153 158.853 149.153H154.745V152.7C154.745 152.787 154.715 152.861 154.654 152.922C154.593 152.974 154.519 153 154.432 153H153.819ZM164.331 153.13C163.201 153.13 162.327 152.835 161.71 152.244C161.093 151.644 160.767 150.744 160.732 149.544C160.724 149.284 160.719 148.914 160.719 148.436C160.719 147.958 160.724 147.593 160.732 147.341C160.767 146.158 161.102 145.263 161.736 144.654C162.38 144.046 163.245 143.742 164.331 143.742C165.418 143.742 166.279 144.046 166.913 144.654C167.548 145.263 167.882 146.158 167.917 147.341C167.935 147.845 167.943 148.21 167.943 148.436C167.943 148.653 167.935 149.023 167.917 149.544C167.882 150.744 167.556 151.644 166.939 152.244C166.331 152.835 165.461 153.13 164.331 153.13ZM164.331 152.048C165.027 152.048 165.583 151.839 166 151.422C166.418 150.996 166.644 150.349 166.678 149.479C166.696 148.958 166.705 148.61 166.705 148.436C166.705 148.245 166.696 147.897 166.678 147.393C166.644 146.523 166.418 145.876 166 145.45C165.583 145.024 165.027 144.811 164.331 144.811C163.636 144.811 163.075 145.024 162.649 145.45C162.232 145.876 162.01 146.523 161.984 147.393C161.975 147.645 161.971 147.993 161.971 148.436C161.971 148.871 161.975 149.218 161.984 149.479C162.01 150.349 162.232 150.996 162.649 151.422C163.066 151.839 163.627 152.048 164.331 152.048ZM173.3 153.13C172.179 153.13 171.314 152.83 170.705 152.231C170.097 151.622 169.792 150.705 169.792 149.479V144.185C169.792 144.089 169.819 144.015 169.871 143.963C169.923 143.902 169.992 143.872 170.079 143.872H170.705C170.801 143.872 170.875 143.902 170.927 143.963C170.988 144.015 171.018 144.089 171.018 144.185V149.505C171.018 150.357 171.214 150.992 171.605 151.409C172.005 151.826 172.57 152.035 173.3 152.035C174.022 152.035 174.578 151.826 174.969 151.409C175.369 150.983 175.569 150.349 175.569 149.505V144.185C175.569 144.089 175.595 144.015 175.647 143.963C175.7 143.902 175.773 143.872 175.869 143.872H176.495C176.582 143.872 176.652 143.902 176.704 143.963C176.765 144.015 176.795 144.089 176.795 144.185V149.479C176.795 150.705 176.491 151.622 175.882 152.231C175.282 152.83 174.422 153.13 173.3 153.13ZM179.288 153C179.201 153 179.132 152.974 179.08 152.922C179.027 152.861 179.001 152.787 179.001 152.7V144.185C179.001 144.089 179.027 144.015 179.08 143.963C179.132 143.902 179.201 143.872 179.288 143.872H179.862C179.949 143.872 180.014 143.889 180.058 143.924C180.101 143.959 180.144 144.002 180.188 144.055L184.556 150.783V144.185C184.556 144.089 184.582 144.015 184.635 143.963C184.695 143.902 184.769 143.872 184.856 143.872H185.443C185.539 143.872 185.613 143.902 185.665 143.963C185.726 144.015 185.756 144.089 185.756 144.185V152.687C185.756 152.774 185.726 152.848 185.665 152.909C185.613 152.97 185.543 153 185.456 153H184.869C184.721 153 184.617 152.939 184.556 152.817L180.188 146.154V152.7C180.188 152.787 180.157 152.861 180.097 152.922C180.044 152.974 179.975 153 179.888 153H179.288ZM188.33 153C188.243 153 188.173 152.974 188.121 152.922C188.069 152.861 188.043 152.787 188.043 152.7V144.185C188.043 144.089 188.069 144.015 188.121 143.963C188.173 143.902 188.243 143.872 188.33 143.872H191.277C192.589 143.872 193.537 144.168 194.119 144.759C194.702 145.341 195.002 146.224 195.019 147.406C195.028 147.658 195.032 147.997 195.032 148.423C195.032 148.849 195.028 149.192 195.019 149.453C195.002 150.279 194.867 150.953 194.615 151.474C194.371 151.987 193.985 152.37 193.454 152.622C192.924 152.874 192.22 153 191.342 153H188.33ZM191.277 151.918C191.885 151.918 192.368 151.835 192.724 151.67C193.089 151.496 193.35 151.231 193.506 150.874C193.672 150.509 193.763 150.018 193.78 149.401C193.798 148.879 193.806 148.553 193.806 148.423C193.806 148.284 193.798 147.962 193.78 147.458C193.763 146.589 193.554 145.954 193.154 145.554C192.763 145.146 192.116 144.941 191.211 144.941H189.268V151.918H191.277Z" fill="#C2C2C2"/>
<path d="M85.0792 127.15C84.3766 127.15 83.7794 126.904 83.2876 126.412C82.7958 125.92 82.5499 125.323 82.5499 124.621V111.131H49.1413C48.4387 111.131 47.8414 110.885 47.3496 110.393C46.8578 109.901 46.6119 109.304 46.6119 108.601V101.329C46.6119 100.205 46.9983 99.1513 47.7712 98.1677L78.8612 55.1685C79.2125 54.6064 79.7395 54.1849 80.4421 53.9038C81.1447 53.5525 81.9175 53.3769 82.7607 53.3769H94.3536C95.1264 53.3769 95.7236 53.6228 96.1452 54.1146C96.637 54.5362 96.8829 55.1334 96.8829 55.9063V98.5892H106.368C107.141 98.5892 107.738 98.8351 108.16 99.3269C108.651 99.7485 108.897 100.346 108.897 101.119V108.601C108.897 109.304 108.651 109.901 108.16 110.393C107.738 110.885 107.141 111.131 106.368 111.131H96.8829V124.621C96.8829 125.323 96.637 125.92 96.1452 126.412C95.7236 126.904 95.1264 127.15 94.3536 127.15H85.0792ZM61.4719 99.0108H82.8661V68.7638L61.4719 99.0108ZM146.977 128.204C137.562 128.204 130.536 125.604 125.899 120.405C121.332 115.206 118.838 108.39 118.416 99.9593C118.346 98.0623 118.311 94.8303 118.311 90.2634C118.311 85.6262 118.346 82.324 118.416 80.3567C118.768 72.0661 121.297 65.3211 126.004 60.1219C130.712 54.9226 137.703 52.323 146.977 52.323C156.251 52.323 163.242 54.9226 167.95 60.1219C172.657 65.3211 175.186 72.0661 175.538 80.3567C175.678 84.2913 175.748 87.5935 175.748 90.2634C175.748 92.9333 175.678 96.1652 175.538 99.9593C175.116 108.39 172.587 115.206 167.95 120.405C163.383 125.604 156.392 128.204 146.977 128.204ZM146.977 115.873C151.333 115.873 154.6 114.468 156.778 111.658C158.956 108.777 160.116 104.702 160.256 99.4323C160.326 97.3948 160.361 94.2682 160.361 90.0526C160.361 85.837 160.326 82.7807 160.256 80.8837C160.116 75.7547 158.956 71.7499 156.778 68.8692C154.6 65.9886 151.333 64.5131 146.977 64.4428C142.621 64.5131 139.354 65.9886 137.176 68.8692C134.998 71.7499 133.838 75.7547 133.698 80.8837C133.628 82.7807 133.592 85.837 133.592 90.0526C133.592 94.2682 133.628 97.3948 133.698 99.4323C133.838 104.702 134.998 108.777 137.176 111.658C139.354 114.468 142.621 115.873 146.977 115.873ZM223.404 127.15C222.701 127.15 222.104 126.904 221.612 126.412C221.12 125.92 220.874 125.323 220.874 124.621V111.131H187.466C186.763 111.131 186.166 110.885 185.674 110.393C185.182 109.901 184.936 109.304 184.936 108.601V101.329C184.936 100.205 185.323 99.1513 186.096 98.1677L217.186 55.1685C217.537 54.6064 218.064 54.1849 218.766 53.9038C219.469 53.5525 220.242 53.3769 221.085 53.3769H232.678C233.451 53.3769 234.048 53.6228 234.47 54.1146C234.961 54.5362 235.207 55.1334 235.207 55.9063V98.5892H244.692C245.465 98.5892 246.062 98.8351 246.484 99.3269C246.976 99.7485 247.222 100.346 247.222 101.119V108.601C247.222 109.304 246.976 109.901 246.484 110.393C246.062 110.885 245.465 111.131 244.692 111.131H235.207V124.621C235.207 125.323 234.961 125.92 234.47 126.412C234.048 126.904 233.451 127.15 232.678 127.15H223.404ZM199.796 99.0108H221.19V68.7638L199.796 99.0108Z" fill="#C2C2C2"/>
<path d="M243.448 86C243.288 86 243.152 85.944 243.04 85.832C242.928 85.72 242.872 85.584 242.872 85.424V69.8C242.872 69.624 242.92 69.48 243.016 69.368C243.128 69.256 243.272 69.2 243.448 69.2H254.032C254.208 69.2 254.352 69.256 254.464 69.368C254.576 69.48 254.632 69.624 254.632 69.8V71.408C254.632 71.584 254.576 71.728 254.464 71.84C254.352 71.936 254.208 71.984 254.032 71.984H246.16V76.184H253.504C253.68 76.184 253.824 76.24 253.936 76.352C254.048 76.464 254.104 76.608 254.104 76.784V78.296C254.104 78.472 254.048 78.616 253.936 78.728C253.824 78.824 253.68 78.872 253.504 78.872H246.16V83.216H254.224C254.4 83.216 254.544 83.272 254.656 83.384C254.768 83.48 254.824 83.616 254.824 83.792V85.424C254.824 85.6 254.768 85.744 254.656 85.856C254.544 85.952 254.4 86 254.224 86H243.448ZM258.401 86C258.241 86 258.105 85.944 257.993 85.832C257.881 85.72 257.825 85.584 257.825 85.424V69.8C257.825 69.624 257.873 69.48 257.969 69.368C258.081 69.256 258.225 69.2 258.401 69.2H264.617C266.585 69.2 268.121 69.656 269.225 70.568C270.345 71.48 270.905 72.776 270.905 74.456C270.905 75.624 270.625 76.608 270.065 77.408C269.505 78.192 268.721 78.76 267.713 79.112L271.193 85.232C271.241 85.328 271.265 85.416 271.265 85.496C271.265 85.64 271.209 85.76 271.097 85.856C271.001 85.952 270.889 86 270.761 86H268.553C268.297 86 268.097 85.944 267.953 85.832C267.809 85.704 267.681 85.544 267.569 85.352L264.497 79.664H261.209V85.424C261.209 85.584 261.153 85.72 261.041 85.832C260.929 85.944 260.785 86 260.609 86H258.401ZM264.545 76.928C265.505 76.928 266.225 76.72 266.705 76.304C267.185 75.872 267.425 75.248 267.425 74.432C267.425 73.616 267.185 72.992 266.705 72.56C266.225 72.112 265.505 71.888 264.545 71.888H261.209V76.928H264.545ZM274.573 86C274.413 86 274.277 85.944 274.165 85.832C274.053 85.72 273.997 85.584 273.997 85.424V69.8C273.997 69.624 274.045 69.48 274.141 69.368C274.253 69.256 274.397 69.2 274.573 69.2H280.789C282.757 69.2 284.293 69.656 285.397 70.568C286.517 71.48 287.077 72.776 287.077 74.456C287.077 75.624 286.797 76.608 286.237 77.408C285.677 78.192 284.893 78.76 283.885 79.112L287.365 85.232C287.413 85.328 287.437 85.416 287.437 85.496C287.437 85.64 287.381 85.76 287.269 85.856C287.173 85.952 287.061 86 286.933 86H284.725C284.469 86 284.269 85.944 284.125 85.832C283.981 85.704 283.853 85.544 283.741 85.352L280.669 79.664H277.381V85.424C277.381 85.584 277.325 85.72 277.213 85.832C277.101 85.944 276.957 86 276.781 86H274.573ZM280.717 76.928C281.677 76.928 282.397 76.72 282.877 76.304C283.357 75.872 283.597 75.248 283.597 74.432C283.597 73.616 283.357 72.992 282.877 72.56C282.397 72.112 281.677 71.888 280.717 71.888H277.381V76.928H280.717ZM296.602 86.24C294.41 86.24 292.706 85.688 291.49 84.584C290.274 83.48 289.634 81.84 289.57 79.664C289.554 79.2 289.546 78.52 289.546 77.624C289.546 76.712 289.554 76.024 289.57 75.56C289.634 73.432 290.29 71.8 291.538 70.664C292.786 69.528 294.474 68.96 296.602 68.96C298.714 68.96 300.394 69.528 301.642 70.664C302.906 71.8 303.57 73.432 303.634 75.56C303.666 76.488 303.682 77.176 303.682 77.624C303.682 78.056 303.666 78.736 303.634 79.664C303.57 81.84 302.922 83.48 301.69 84.584C300.474 85.688 298.778 86.24 296.602 86.24ZM296.602 83.456C297.674 83.456 298.522 83.136 299.146 82.496C299.77 81.856 300.106 80.872 300.154 79.544C300.186 78.584 300.202 77.936 300.202 77.6C300.202 77.232 300.186 76.584 300.154 75.656C300.106 74.344 299.762 73.368 299.122 72.728C298.482 72.072 297.642 71.744 296.602 71.744C295.546 71.744 294.698 72.072 294.058 72.728C293.418 73.368 293.082 74.344 293.05 75.656C293.034 76.12 293.026 76.768 293.026 77.6C293.026 78.416 293.034 79.064 293.05 79.544C293.082 80.856 293.41 81.84 294.034 82.496C294.674 83.136 295.53 83.456 296.602 83.456ZM307.386 86C307.226 86 307.09 85.944 306.978 85.832C306.866 85.72 306.81 85.584 306.81 85.424V69.8C306.81 69.624 306.858 69.48 306.954 69.368C307.066 69.256 307.21 69.2 307.386 69.2H313.602C315.57 69.2 317.106 69.656 318.21 70.568C319.33 71.48 319.89 72.776 319.89 74.456C319.89 75.624 319.61 76.608 319.049 77.408C318.49 78.192 317.706 78.76 316.698 79.112L320.178 85.232C320.226 85.328 320.25 85.416 320.25 85.496C320.25 85.64 320.194 85.76 320.082 85.856C319.986 85.952 319.874 86 319.746 86H317.538C317.282 86 317.082 85.944 316.938 85.832C316.794 85.704 316.666 85.544 316.554 85.352L313.482 79.664H310.194V85.424C310.194 85.584 310.138 85.72 310.026 85.832C309.914 85.944 309.77 86 309.594 86H307.386ZM313.53 76.928C314.49 76.928 315.21 76.72 315.69 76.304C316.17 75.872 316.41 75.248 316.41 74.432C316.41 73.616 316.17 72.992 315.69 72.56C315.21 72.112 314.49 71.888 313.53 71.888H310.194V76.928H313.53Z" fill="#C2C2C2"/>
<path d="M420.02 281.23C420.02 310.56 379.02 303.46 376.84 323.61C374.84 342.34 403.22 341.44 407.24 354.86C414.69 379.74 369.34 386 356.6 387C327.388 389.213 298.04 388.916 268.88 386.11C260.81 385.53 234.54 386.05 233.52 377.43C232.27 367.01 247.83 370.43 248.33 363.54C248.95 354.86 223.01 354.85 209.25 355.54C183.25 356.86 167.13 355.43 142.31 357.17C129.31 357.74 87.7098 359.48 88.3098 340.96C88.4998 335.15 98.7298 332.57 99.4798 328.23C101.24 318.01 69.0798 318.4 61.0098 318.97C39.9098 320.13 2.53982 316.8 0.209818 300.46C-3.31018 275.83 31.8498 273.46 43.6398 272.84C70.3098 272.84 95.7498 272.84 123.05 270.53C129.14 270.01 135.46 270.37 134.22 263.42C132.98 258.8 124.29 257.06 123.68 252.42C121.19 233.33 189.21 230.48 224.81 233.76C262.92 237.26 284.17 239.11 268.66 254.76C255.96 267.57 420.02 247.8 420.02 281.23Z" fill="#DAF1E8"/>
<path d="M341.45 307.67C338.2 287.41 316.7 268.83 296.2 268.67C275.06 268.47 255.67 287.53 249.65 306.67C249.441 307.424 249.489 308.226 249.786 308.95C250.083 309.674 250.612 310.279 251.29 310.67C265.63 317.88 281.88 320.12 297.8 320.03C311.8 319.95 327.61 319.41 339.8 311.74C340.321 311.436 340.75 310.997 341.043 310.468C341.335 309.94 341.479 309.343 341.46 308.74C341.511 308.385 341.507 308.024 341.45 307.67V307.67Z" fill="#E9A83F"/>
<path d="M272.15 289.95C272.127 290.239 272.002 290.511 271.796 290.717C271.591 290.922 271.319 291.047 271.03 291.07C270.87 291.091 270.708 291.078 270.554 291.032C270.4 290.985 270.257 290.907 270.136 290.8C270.015 290.694 269.918 290.564 269.851 290.417C269.784 290.27 269.75 290.111 269.75 289.95C269.75 289.789 269.784 289.63 269.851 289.483C269.918 289.336 270.015 289.206 270.136 289.1C270.257 288.994 270.4 288.915 270.554 288.868C270.708 288.822 270.87 288.809 271.03 288.83C271.319 288.853 271.591 288.978 271.796 289.184C272.002 289.389 272.127 289.661 272.15 289.95Z" fill="#B77A49"/>
<path d="M279.38 291.07C279.357 291.359 279.232 291.631 279.026 291.836C278.821 292.042 278.549 292.167 278.26 292.19C278.1 292.211 277.938 292.198 277.784 292.152C277.63 292.105 277.487 292.026 277.366 291.92C277.245 291.814 277.148 291.684 277.081 291.537C277.014 291.39 276.98 291.231 276.98 291.07C276.98 290.909 277.014 290.75 277.081 290.603C277.148 290.456 277.245 290.326 277.366 290.22C277.487 290.113 277.63 290.035 277.784 289.988C277.938 289.942 278.1 289.929 278.26 289.95C278.549 289.973 278.821 290.098 279.026 290.303C279.232 290.509 279.357 290.781 279.38 291.07V291.07Z" fill="#B77A49"/>
<path d="M331.86 305.68C331.837 305.969 331.712 306.241 331.506 306.447C331.301 306.652 331.029 306.777 330.74 306.8C330.58 306.821 330.418 306.808 330.264 306.762C330.11 306.715 329.967 306.637 329.846 306.53C329.725 306.424 329.627 306.294 329.561 306.147C329.494 306 329.46 305.841 329.46 305.68C329.46 305.519 329.494 305.36 329.561 305.213C329.627 305.066 329.725 304.936 329.846 304.83C329.967 304.724 330.11 304.645 330.264 304.598C330.418 304.552 330.58 304.539 330.74 304.56C331.029 304.583 331.301 304.708 331.506 304.914C331.712 305.119 331.837 305.391 331.86 305.68V305.68Z" fill="#B77A49"/>
<path d="M329.5 287.35C329.475 287.64 329.347 287.912 329.14 288.117C328.933 288.322 328.66 288.447 328.37 288.47C328.21 288.491 328.048 288.478 327.894 288.432C327.739 288.385 327.597 288.306 327.476 288.2C327.355 288.094 327.257 287.964 327.191 287.817C327.124 287.67 327.09 287.511 327.09 287.35C327.09 287.189 327.124 287.03 327.191 286.883C327.257 286.736 327.355 286.606 327.476 286.5C327.597 286.394 327.739 286.315 327.894 286.268C328.048 286.222 328.21 286.209 328.37 286.23C328.66 286.253 328.933 286.378 329.14 286.583C329.347 286.788 329.475 287.06 329.5 287.35V287.35Z" fill="#B77A49"/>
<path d="M256.69 306.51C256.667 306.799 256.542 307.071 256.337 307.276C256.131 307.482 255.86 307.607 255.57 307.63C255.414 307.645 255.256 307.627 255.106 307.577C254.957 307.527 254.82 307.447 254.703 307.341C254.587 307.235 254.494 307.106 254.43 306.962C254.367 306.818 254.334 306.662 254.334 306.505C254.334 306.348 254.367 306.192 254.43 306.048C254.494 305.904 254.587 305.775 254.703 305.669C254.82 305.563 254.957 305.483 255.106 305.433C255.256 305.383 255.414 305.365 255.57 305.38C255.861 305.403 256.134 305.53 256.34 305.737C256.545 305.945 256.67 306.219 256.69 306.51V306.51Z" fill="#B77A49"/>
<path d="M319.55 313C319.527 313.292 319.4 313.566 319.193 313.774C318.986 313.981 318.712 314.107 318.42 314.13C318.263 314.145 318.105 314.127 317.956 314.077C317.807 314.027 317.669 313.947 317.553 313.841C317.437 313.735 317.344 313.606 317.28 313.462C317.216 313.318 317.184 313.162 317.184 313.005C317.184 312.848 317.216 312.692 317.28 312.548C317.344 312.404 317.437 312.275 317.553 312.169C317.669 312.063 317.807 311.983 317.956 311.933C318.105 311.883 318.263 311.865 318.42 311.88C318.71 311.903 318.983 312.028 319.19 312.233C319.397 312.438 319.525 312.71 319.55 313V313Z" fill="#B77A49"/>
<path d="M280.02 307.93C279.997 308.219 279.872 308.491 279.667 308.696C279.461 308.902 279.19 309.027 278.9 309.05C278.744 309.065 278.586 309.047 278.436 308.997C278.287 308.947 278.15 308.867 278.033 308.761C277.917 308.655 277.824 308.526 277.761 308.382C277.697 308.238 277.664 308.082 277.664 307.925C277.664 307.768 277.697 307.612 277.761 307.468C277.824 307.324 277.917 307.195 278.033 307.089C278.15 306.983 278.287 306.903 278.436 306.853C278.586 306.803 278.744 306.785 278.9 306.8C279.191 306.825 279.462 306.953 279.668 307.159C279.873 307.366 279.998 307.639 280.02 307.93Z" fill="#B77A49"/>
<path d="M282.23 284.1C282.216 284.246 282.152 284.382 282.047 284.484C281.943 284.587 281.806 284.649 281.66 284.66C281.509 284.649 281.366 284.588 281.254 284.486C281.142 284.385 281.066 284.249 281.04 284.1C281.065 283.95 281.139 283.813 281.252 283.712C281.365 283.61 281.509 283.549 281.66 283.54C281.807 283.549 281.945 283.611 282.049 283.714C282.154 283.817 282.218 283.954 282.23 284.1Z" fill="#B77A49"/>
<path d="M275.35 286.79C275.338 286.935 275.276 287.071 275.173 287.173C275.071 287.276 274.935 287.339 274.79 287.35C274.638 287.341 274.495 287.28 274.382 287.178C274.269 287.077 274.195 286.94 274.17 286.79C274.193 286.639 274.267 286.501 274.38 286.399C274.493 286.297 274.638 286.237 274.79 286.23C274.935 286.239 275.072 286.301 275.175 286.404C275.278 286.508 275.341 286.645 275.35 286.79V286.79Z" fill="#B77A49"/>
<path d="M318.95 286.23C318.939 286.375 318.876 286.511 318.773 286.613C318.671 286.716 318.535 286.778 318.39 286.79C318.239 286.779 318.096 286.718 317.984 286.616C317.872 286.515 317.796 286.379 317.77 286.23C317.795 286.08 317.869 285.943 317.982 285.841C318.095 285.74 318.239 285.679 318.39 285.67C318.535 285.679 318.672 285.741 318.776 285.844C318.879 285.947 318.941 286.084 318.95 286.23V286.23Z" fill="#B77A49"/>
<path d="M295.51 307.36C295.499 307.506 295.437 307.643 295.334 307.747C295.232 307.851 295.096 307.916 294.95 307.93C294.87 307.941 294.788 307.934 294.71 307.911C294.632 307.887 294.56 307.847 294.499 307.794C294.438 307.74 294.389 307.674 294.356 307.6C294.322 307.526 294.305 307.446 294.305 307.365C294.305 307.284 294.322 307.203 294.356 307.129C294.389 307.055 294.438 306.99 294.499 306.936C294.56 306.883 294.632 306.843 294.71 306.819C294.788 306.796 294.87 306.789 294.95 306.8C295.094 306.813 295.229 306.877 295.331 306.979C295.433 307.081 295.497 307.216 295.51 307.36V307.36Z" fill="#B77A49"/>
<path d="M266.32 304.56C266.307 304.704 266.243 304.839 266.141 304.941C266.039 305.043 265.904 305.107 265.76 305.12C265.607 305.111 265.462 305.051 265.348 304.949C265.233 304.848 265.157 304.711 265.13 304.56C265.155 304.409 265.231 304.27 265.346 304.169C265.46 304.067 265.607 304.007 265.76 304C265.905 304.011 266.04 304.074 266.143 304.177C266.246 304.279 266.308 304.415 266.32 304.56V304.56Z" fill="#B77A49"/>
<path d="M315.75 278.17C315.74 278.316 315.678 278.453 315.575 278.556C315.472 278.659 315.335 278.721 315.19 278.73C315.038 278.723 314.893 278.663 314.78 278.561C314.667 278.459 314.593 278.321 314.57 278.17C314.594 278.02 314.669 277.883 314.782 277.782C314.894 277.68 315.038 277.619 315.19 277.61C315.335 277.622 315.47 277.684 315.573 277.787C315.676 277.89 315.738 278.025 315.75 278.17V278.17Z" fill="#B77A49"/>
<path d="M288.35 317.35C288.341 317.496 288.279 317.635 288.176 317.739C288.073 317.844 287.936 317.908 287.79 317.92C287.709 317.931 287.627 317.924 287.55 317.901C287.472 317.877 287.4 317.837 287.339 317.784C287.278 317.73 287.229 317.664 287.195 317.59C287.162 317.516 287.145 317.436 287.145 317.355C287.145 317.274 287.162 317.193 287.195 317.119C287.229 317.046 287.278 316.98 287.339 316.926C287.4 316.873 287.472 316.833 287.55 316.809C287.627 316.786 287.709 316.779 287.79 316.79C287.935 316.801 288.07 316.864 288.173 316.967C288.276 317.069 288.338 317.205 288.35 317.35V317.35Z" fill="#B77A49"/>
<path d="M263.48 305.12C263.467 305.264 263.403 305.399 263.301 305.501C263.199 305.603 263.064 305.667 262.92 305.68C262.767 305.671 262.622 305.611 262.508 305.509C262.393 305.408 262.317 305.271 262.29 305.12C262.315 304.969 262.391 304.831 262.506 304.729C262.621 304.627 262.767 304.567 262.92 304.56C263.065 304.572 263.201 304.634 263.303 304.737C263.406 304.839 263.469 304.975 263.48 305.12V305.12Z" fill="#B77A49"/>
<path d="M323.1 296.72C323.086 296.866 323.022 297.002 322.917 297.104C322.813 297.207 322.676 297.269 322.53 297.28C322.45 297.291 322.368 297.284 322.29 297.261C322.212 297.237 322.14 297.197 322.079 297.144C322.018 297.09 321.969 297.024 321.936 296.95C321.902 296.877 321.885 296.796 321.885 296.715C321.885 296.634 321.902 296.554 321.936 296.48C321.969 296.406 322.018 296.34 322.079 296.286C322.14 296.233 322.212 296.193 322.29 296.169C322.368 296.146 322.45 296.139 322.53 296.15C322.677 296.161 322.816 296.225 322.92 296.33C323.025 296.434 323.089 296.573 323.1 296.72V296.72Z" fill="#B77A49"/>
<path d="M303.76 297.28C303.746 297.426 303.681 297.562 303.577 297.664C303.473 297.767 303.336 297.829 303.19 297.84C303.039 297.829 302.896 297.768 302.784 297.666C302.671 297.565 302.596 297.429 302.57 297.28C302.594 297.13 302.669 296.993 302.782 296.892C302.894 296.79 303.038 296.729 303.19 296.72C303.336 296.729 303.475 296.791 303.579 296.894C303.684 296.997 303.748 297.134 303.76 297.28V297.28Z" fill="#B77A49"/>
<path d="M291.82 294.32C291.809 294.465 291.746 294.601 291.643 294.703C291.541 294.806 291.405 294.869 291.26 294.88C291.18 294.891 291.098 294.884 291.02 294.861C290.942 294.837 290.87 294.797 290.809 294.744C290.748 294.69 290.699 294.625 290.666 294.551C290.632 294.477 290.615 294.396 290.615 294.315C290.615 294.234 290.632 294.154 290.666 294.08C290.699 294.006 290.748 293.94 290.809 293.886C290.87 293.833 290.942 293.793 291.02 293.769C291.098 293.746 291.18 293.739 291.26 293.75C291.406 293.762 291.544 293.826 291.646 293.931C291.749 294.035 291.811 294.174 291.82 294.32V294.32Z" fill="#B77A49"/>
<path d="M300.2 306.8C300.189 306.945 300.126 307.081 300.023 307.183C299.921 307.286 299.785 307.349 299.64 307.36C299.488 307.352 299.343 307.293 299.23 307.191C299.117 307.089 299.043 306.951 299.02 306.8C299.045 306.65 299.119 306.513 299.232 306.411C299.345 306.31 299.489 306.249 299.64 306.24C299.784 306.253 299.919 306.317 300.021 306.419C300.123 306.521 300.187 306.656 300.2 306.8V306.8Z" fill="#B77A49"/>
<path d="M296.1 274.38C296.089 274.525 296.026 274.661 295.923 274.763C295.821 274.866 295.685 274.929 295.54 274.94C295.391 274.94 295.249 274.881 295.144 274.776C295.039 274.671 294.98 274.529 294.98 274.38C294.98 274.232 295.039 274.089 295.144 273.984C295.249 273.879 295.391 273.82 295.54 273.82C295.685 273.832 295.821 273.894 295.923 273.997C296.026 274.099 296.089 274.235 296.1 274.38V274.38Z" fill="#B77A49"/>
<path d="M280.56 275.51C280.548 275.655 280.486 275.791 280.383 275.893C280.28 275.996 280.145 276.059 280 276.07C279.919 276.081 279.837 276.074 279.76 276.051C279.682 276.027 279.61 275.987 279.549 275.934C279.488 275.88 279.439 275.814 279.405 275.741C279.372 275.667 279.354 275.586 279.354 275.505C279.354 275.424 279.372 275.344 279.405 275.27C279.439 275.196 279.488 275.13 279.549 275.076C279.61 275.023 279.682 274.983 279.76 274.959C279.837 274.936 279.919 274.929 280 274.94C280.146 274.952 280.283 275.016 280.386 275.121C280.489 275.225 280.551 275.364 280.56 275.51V275.51Z" fill="#B77A49"/>
<path d="M333.52 233.02L331.19 230.65C331.068 230.509 330.897 230.419 330.712 230.399C330.526 230.379 330.34 230.429 330.19 230.54C312.39 244.34 301.43 265.96 294.35 286.91C294.292 287.057 294.285 287.219 294.328 287.371C294.371 287.522 294.463 287.656 294.59 287.75C297.27 289.41 300.12 290.19 303.07 288.94C303.182 288.925 303.288 288.877 303.373 288.802C303.458 288.727 303.52 288.629 303.55 288.52V288.52C305.937 281.322 308.687 274.249 311.79 267.33C317 255.52 323.26 242.44 333.41 234.06C333.49 234.002 333.557 233.929 333.607 233.843C333.657 233.758 333.688 233.663 333.698 233.565C333.709 233.466 333.698 233.367 333.667 233.273C333.637 233.179 333.586 233.093 333.52 233.02V233.02Z" fill="#865936"/>
<path d="M295.15 276.75C297.662 281.358 300.46 285.804 303.53 290.06C303.74 290.36 304.19 290 303.97 289.7C300.932 285.483 298.163 281.077 295.68 276.51C295.5 276.19 294.98 276.42 295.15 276.75Z" fill="#946641"/>
<path d="M297.82 271.85C300.21 277.75 304.31 282.63 307.61 288.01C307.8 288.33 308.24 288.01 308.05 287.66C304.79 282.31 300.71 277.47 298.34 271.61C298.2 271.27 297.68 271.5 297.82 271.85V271.85Z" fill="#946641"/>
<path d="M300.44 266.04C303.2 270.22 305.36 274.74 307.78 279.12C307.96 279.44 308.49 279.21 308.31 278.89C305.87 274.47 303.68 269.89 300.88 265.68C300.68 265.37 300.23 265.73 300.44 266.04V266.04Z" fill="#946641"/>
<path d="M304.43 261.29C307.19 265.23 309.43 269.47 311.86 273.61C312.05 273.92 312.58 273.7 312.39 273.38C309.94 269.19 307.66 264.91 304.88 260.93C304.67 260.63 304.22 260.99 304.43 261.29Z" fill="#946641"/>
<path d="M308.2 251.23C310.081 256.184 312.31 261 314.87 265.64C315.04 265.96 315.57 265.73 315.39 265.41C312.838 260.764 310.612 255.946 308.73 250.99C308.6 250.65 308.08 250.88 308.2 251.23Z" fill="#946641"/>
<path d="M313.3 243.55C315.099 248.688 317.241 253.699 319.71 258.55C319.87 258.89 320.4 258.65 320.24 258.32C317.768 253.47 315.627 248.459 313.83 243.32C313.71 242.96 313.19 243.2 313.3 243.55Z" fill="#946641"/>
<path d="M318.02 239.23C319.146 243.514 320.542 247.722 322.2 251.83C322.238 251.887 322.296 251.929 322.362 251.948C322.429 251.966 322.5 251.961 322.562 251.932C322.625 251.903 322.675 251.853 322.704 251.79C322.733 251.727 322.739 251.656 322.72 251.59C321.064 247.486 319.671 243.281 318.55 239C318.44 238.65 317.92 238.88 318.02 239.23V239.23Z" fill="#946641"/>
<path d="M321.84 234.3C323.13 238.08 324.28 241.91 325.57 245.69C325.69 246.04 326.21 245.81 326.1 245.46C324.81 241.68 323.65 237.85 322.36 234.07C322.25 233.72 321.72 233.95 321.84 234.3Z" fill="#946641"/>
<path d="M326.72 230.23C327.72 233.28 328.78 236.34 329.72 239.42C329.83 239.77 330.35 239.54 330.24 239.19C329.24 236.11 328.24 233.05 327.24 230C327.12 229.64 326.6 229.88 326.71 230.23H326.72Z" fill="#946641"/>
<path d="M290.59 285.99C297.2 285.24 303.5 283.11 309.95 281.61C310.31 281.53 310.22 280.96 309.86 281.04C303.41 282.54 297.1 284.67 290.5 285.43C290.14 285.43 290.23 286.04 290.59 285.99Z" fill="#946641"/>
<path d="M290.32 279.81C297.82 278.07 305.04 275.43 312.32 273C312.67 272.88 312.43 272.35 312.08 272.47C304.84 274.89 297.67 277.47 290.22 279.24C289.87 279.32 289.95 279.89 290.31 279.81H290.32Z" fill="#946641"/>
<path d="M293.4 272.23C300.96 272.45 307.84 269.55 314.99 267.51C315.34 267.4 315.25 266.84 314.9 266.94C307.81 268.94 300.96 271.88 293.46 271.66C293.1 271.66 293.03 272.22 293.4 272.23Z" fill="#946641"/>
<path d="M297.43 266.16C304.61 264.78 311.67 262.95 318.77 261.23C319.13 261.15 319.04 260.58 318.68 260.67C311.58 262.38 304.51 264.21 297.34 265.6C297.266 265.612 297.199 265.653 297.155 265.714C297.111 265.775 297.093 265.851 297.105 265.925C297.117 265.999 297.158 266.066 297.219 266.11C297.28 266.154 297.356 266.172 297.43 266.16V266.16Z" fill="#946641"/>
<path d="M300.02 260.67C307.94 258.49 315.87 256.31 323.83 254.29C324.19 254.19 324.1 253.63 323.74 253.72C315.74 255.72 307.85 257.92 299.93 260.11C299.58 260.2 299.66 260.77 300.02 260.67Z" fill="#946641"/>
<path d="M304.86 253.13C311.03 252.05 317.18 250.81 323.34 249.61C323.415 249.598 323.481 249.557 323.525 249.496C323.569 249.435 323.587 249.359 323.575 249.285C323.563 249.211 323.522 249.144 323.461 249.1C323.401 249.056 323.325 249.038 323.25 249.05C317.09 250.25 310.94 251.48 304.76 252.57C304.686 252.583 304.62 252.625 304.577 252.687C304.534 252.749 304.517 252.826 304.53 252.9C304.544 252.974 304.586 253.04 304.648 253.083C304.71 253.126 304.786 253.143 304.86 253.13V253.13Z" fill="#946641"/>
<path d="M309.23 246.69C315.3 245.35 321.51 244.94 327.63 243.94C327.7 243.922 327.76 243.878 327.799 243.818C327.839 243.758 327.854 243.685 327.843 243.614C327.832 243.543 327.795 243.479 327.739 243.434C327.683 243.389 327.612 243.366 327.54 243.37C321.42 244.37 315.21 244.78 309.14 246.13C308.78 246.2 308.87 246.77 309.23 246.69Z" fill="#946641"/>
<path d="M314.73 239.81C320.25 239.81 325.73 239.34 331.25 239.14C331.62 239.14 331.52 238.56 331.16 238.58C325.7 238.77 320.26 239.24 314.8 239.24C314.44 239.24 314.37 239.81 314.73 239.81Z" fill="#946641"/>
<path d="M317.93 235.36C323.55 236.47 329.26 236.27 334.93 236.3C335.29 236.3 335.36 235.73 334.99 235.72C329.29 235.72 323.59 235.9 317.99 234.78C317.63 234.71 317.57 235.28 317.93 235.36Z" fill="#946641"/>
<path d="M339.85 235.56C339.648 236.61 339.078 237.554 338.242 238.222C337.406 238.889 336.359 239.236 335.29 239.2C333.29 238.98 330.98 236.61 331.2 234.6C331.42 232.59 334.2 230.78 336.2 231C337.251 231.202 338.197 231.771 338.866 232.607C339.534 233.443 339.884 234.49 339.85 235.56V235.56Z" fill="#6B4C34"/>
<path d="M327.75 234.93C327.548 235.98 326.978 236.924 326.142 237.592C325.306 238.259 324.259 238.606 323.19 238.57C321.19 238.35 318.87 235.98 319.1 233.96C319.33 231.94 322.1 230.15 324.1 230.37C325.151 230.572 326.096 231.141 326.765 231.977C327.434 232.813 327.783 233.86 327.75 234.93V234.93Z" fill="#6B4C34"/>
<path d="M358.02 228.98C358.775 230.652 359.058 232.499 358.84 234.32C362.609 235.577 366.254 237.177 369.73 239.1C370.288 237.907 370.626 236.623 370.73 235.31C371.503 236.967 371.994 238.741 372.18 240.56C375.409 242.495 378.295 244.951 380.72 247.83C382.47 239.05 381.22 230.51 375.6 224.91C374.288 225.483 373.079 226.266 372.02 227.23C372.379 225.874 373.066 224.628 374.02 223.6C370.44 220.73 365.42 218.87 358.73 218.51C357.324 219.915 356.104 221.495 355.1 223.21C355.016 221.634 355.113 220.054 355.39 218.5C344.68 219.26 332.14 227.57 328.85 235.93C334.44 230.3 345.6 230.47 356.38 233.61C357.252 232.202 357.811 230.623 358.02 228.98V228.98Z" fill="#7A8A44"/>
<path d="M353.36 224.23C350.344 224.114 347.33 224.534 344.46 225.47C341.945 226.275 339.537 227.383 337.29 228.77C334.124 230.69 331.287 233.107 328.89 235.93C331.562 233.442 334.519 231.281 337.7 229.49C342.43 226.72 347.829 225.298 353.31 225.38C358.783 225.703 364.042 227.618 368.44 230.89C371.377 233.063 374.12 235.485 376.64 238.13C374.43 235.168 371.838 232.511 368.93 230.23C364.494 226.653 359.049 224.555 353.36 224.23V224.23Z" fill="#6C793C"/>
<path d="M360.68 216.66C362.128 217.924 363.171 219.586 363.68 221.44C368.428 221.413 373.172 221.748 377.87 222.44C378.033 221.127 377.914 219.793 377.52 218.53C379.004 219.8 380.259 221.315 381.23 223.01C385.575 223.759 389.788 225.133 393.74 227.09C392.26 218.22 387.47 210.56 378.92 207.09C377.703 208.01 376.654 209.133 375.82 210.41C375.699 208.991 376.002 207.567 376.69 206.32C371.5 204.78 365.1 204.67 357.39 206.51C356.37 208.266 355.615 210.163 355.15 212.14C354.441 210.697 353.927 209.167 353.62 207.59C341.82 211.82 330.92 223.77 330.51 232.76C334.61 225.61 347.28 222.11 360.7 221.55C361.108 219.945 361.101 218.262 360.68 216.66V216.66Z" fill="#7A8A44"/>
<path d="M353.57 213.66C350.185 214.508 346.955 215.885 344 217.74C341.521 219.282 339.238 221.119 337.2 223.21C334.438 225.967 332.183 229.19 330.54 232.73C332.629 229.435 335.118 226.412 337.95 223.73C342.433 219.421 347.939 216.324 353.95 214.73C360.295 213.246 366.907 213.336 373.21 214.99C377.352 216.054 381.405 217.442 385.33 219.14C381.601 217.042 377.637 215.394 373.52 214.23C367.035 212.295 360.155 212.099 353.57 213.66V213.66Z" fill="#6C793C"/>
<path d="M353.49 249.45C353.28 251.02 352.608 252.492 351.56 253.68C353.732 256.999 355.647 260.479 357.29 264.09C358.272 263.616 359.139 262.933 359.83 262.09C359.626 263.691 359.146 265.244 358.41 266.68C359.851 270.061 360.804 273.63 361.24 277.28C366.67 272.33 369.79 265.59 368.31 258.05C367.133 257.604 365.888 257.361 364.63 257.33C365.557 256.622 366.675 256.208 367.84 256.14C366.56 251.81 363.76 247.25 359.02 242.64C357.358 242.695 355.713 242.999 354.14 243.54C354.811 242.408 355.632 241.372 356.58 240.46C348.36 234.01 335.24 231.6 328.88 235.26C335.64 235 343.75 242.38 350.17 251.59C351.439 251.168 352.581 250.431 353.49 249.45V249.45Z" fill="#7A8A44"/>
<path d="M352.35 243.12C350.251 241.114 347.852 239.447 345.24 238.18C343.071 237.112 340.781 236.309 338.42 235.79C335.294 235.062 332.064 234.892 328.88 235.29C332.09 235.315 335.285 235.742 338.39 236.56C343.394 237.839 347.995 240.356 351.77 243.88C355.651 247.697 358.562 252.388 360.26 257.56C361.389 260.942 362.258 264.406 362.86 267.92C362.631 264.354 361.987 260.827 360.94 257.41C359.342 251.992 356.385 247.073 352.35 243.12V243.12Z" fill="#6C793C"/>
<path d="M302.59 228.97C301.621 230.224 301.047 231.739 300.94 233.32C297.057 234.122 293.24 235.215 289.52 236.59C289.163 235.567 289.03 234.479 289.13 233.4C288.143 234.674 287.382 236.108 286.88 237.64C283.465 238.998 280.262 240.841 277.37 243.11C277.05 235.77 279.62 228.81 286.02 224.54C287.165 225.059 288.214 225.769 289.12 226.64C288.978 225.484 288.486 224.399 287.71 223.53C291.71 221.39 296.89 220.16 303.49 220.27C304.627 221.484 305.574 222.863 306.3 224.36C306.63 223.087 306.785 221.775 306.76 220.46C317.13 221.75 328.1 229.35 329.98 236.46C325.4 231.46 314.45 230.93 303.39 232.86C302.795 231.653 302.52 230.314 302.59 228.97V228.97Z" fill="#7A8A44"/>
<path d="M307.88 225.31C310.784 225.385 313.659 225.915 316.4 226.88C318.684 227.669 320.866 228.726 322.9 230.03C325.62 231.736 328.017 233.909 329.98 236.45C327.699 234.193 325.146 232.228 322.38 230.6C317.947 227.93 312.911 226.427 307.74 226.23C302.283 226.172 296.892 227.423 292.02 229.88C288.824 231.462 285.755 233.287 282.84 235.34C285.532 233.003 288.489 230.989 291.65 229.34C296.627 226.633 302.215 225.246 307.88 225.31V225.31Z" fill="#6C793C"/>
<path d="M308.18 216.23C306.706 217.324 305.556 218.796 304.85 220.49C300.952 219.729 296.992 219.331 293.02 219.3C293.127 217.984 293.466 216.698 294.02 215.5C292.537 216.568 291.242 217.876 290.19 219.37C286.43 219.473 282.712 220.2 279.19 221.52C281.97 213.02 287.24 206.18 294.88 204.05C295.745 205.173 296.42 206.429 296.88 207.77C297.225 206.408 297.225 204.982 296.88 203.62C301.42 202.88 306.7 203.71 312.72 206.67C313.255 208.585 313.54 210.562 313.57 212.55C314.417 211.217 315.108 209.791 315.63 208.3C324.63 214.21 331.46 227.59 330.22 236.5C328.11 228.85 318.3 223.5 307.36 220.99C307.302 219.364 307.581 217.743 308.18 216.23Z" fill="#7A8A44"/>
<path d="M314.56 214.31C317.247 215.684 319.668 217.527 321.71 219.75C323.508 221.684 325.062 223.83 326.34 226.14C328.162 229.364 329.449 232.863 330.15 236.5C329.037 233.021 327.52 229.685 325.63 226.56C322.863 221.823 318.847 217.938 314.02 215.33C309.092 212.937 303.573 212.034 298.14 212.73C294.513 213.177 290.932 213.944 287.44 215.02C290.82 213.52 294.385 212.474 298.04 211.91C303.662 210.966 309.439 211.805 314.56 214.31Z" fill="#6C793C"/>
<path d="M325.38 206.37C323.899 205.871 322.303 205.833 320.8 206.26C318.713 202.881 316.373 199.665 313.8 196.64C314.615 195.963 315.572 195.478 316.6 195.22C315.092 194.716 313.509 194.476 311.92 194.51C309.486 191.766 306.682 189.373 303.59 187.4C310.24 184.68 317.59 184.79 323.7 189.4C323.619 190.641 323.325 191.859 322.83 193C323.85 192.486 324.682 191.664 325.21 190.65C328.56 193.65 331.49 198.14 333.69 204.37C332.957 205.835 332.01 207.183 330.88 208.37C332.164 208.258 333.426 207.969 334.63 207.51C337.04 217.65 333.83 230.44 327.94 234.51C330.94 228.58 327.66 218.13 322.05 208.41C322.961 207.448 324.109 206.745 325.38 206.37V206.37Z" fill="#7A8A44"/>
<path d="M330.58 210.12C331.516 212.856 332.026 215.719 332.09 218.61C332.156 221.008 331.934 223.405 331.43 225.75C330.807 228.85 329.636 231.813 327.97 234.5C329.265 231.607 330.193 228.564 330.73 225.44C331.638 220.383 331.27 215.179 329.66 210.3C327.832 205.179 324.832 200.556 320.9 196.8C318.337 194.332 315.593 192.059 312.69 190C315.791 191.749 318.68 193.85 321.3 196.26C325.505 200.03 328.696 204.796 330.58 210.12V210.12Z" fill="#6C793C"/>
<path d="M334.1 237.48C333.898 238.531 333.329 239.476 332.493 240.145C331.657 240.814 330.61 241.163 329.54 241.13C327.54 240.9 325.23 238.53 325.45 236.52C325.67 234.51 328.45 232.7 330.45 232.92C331.502 233.12 332.449 233.689 333.118 234.525C333.787 235.362 334.136 236.41 334.1 237.48V237.48Z" fill="#86593D"/>
<path d="M273.47 219.23C281.98 231.87 284.63 248.44 286.52 263.23C287.682 271.932 288.407 280.686 288.69 289.46V289.46C288.686 289.593 288.721 289.724 288.791 289.838C288.86 289.951 288.96 290.042 289.08 290.1C291.94 292.45 295.37 292.52 298.89 291.56C299.062 291.495 299.207 291.376 299.305 291.221C299.402 291.066 299.446 290.883 299.43 290.7C298.43 265.12 293.43 237.53 278.2 216.35C278.073 216.173 277.882 216.051 277.668 216.012C277.453 215.973 277.231 216.019 277.05 216.14L273.67 218C273.57 218.063 273.485 218.146 273.42 218.244C273.354 218.342 273.311 218.453 273.292 218.57C273.273 218.686 273.279 218.805 273.31 218.919C273.341 219.033 273.395 219.139 273.47 219.23Z" fill="#9B693C"/>
<path d="M301.87 279.23C297.566 283.513 292.997 287.521 288.19 291.23C287.86 291.5 287.48 290.95 287.82 290.69C292.579 287.009 297.101 283.031 301.36 278.78C301.66 278.48 302.17 278.91 301.87 279.21V279.23Z" fill="#B97E4D"/>
<path d="M300.52 272.88C295.93 278.64 289.77 282.7 284.34 287.6C284.03 287.88 283.65 287.34 283.96 287.05C289.34 282.2 295.46 278.16 300.02 272.44C300.29 272.11 300.79 272.54 300.52 272.88Z" fill="#B97E4D"/>
<path d="M299.53 265.57C295.08 269.3 291.2 273.57 287.07 277.67C286.77 277.97 286.26 277.54 286.57 277.24C290.73 273.13 294.66 268.79 299.15 265.02C299.48 264.75 299.85 265.29 299.53 265.57Z" fill="#B97E4D"/>
<path d="M296.66 258.98C292.3 262.44 288.41 266.41 284.35 270.21C284.05 270.5 283.54 270.07 283.85 269.78C287.94 265.94 291.85 261.93 296.28 258.44C296.61 258.17 296.99 258.72 296.66 258.98V258.98Z" fill="#B97E4D"/>
<path d="M295.77 246.61C292.059 251.495 288.002 256.106 283.63 260.41C283.34 260.71 282.83 260.29 283.13 259.98C287.492 255.685 291.549 251.091 295.27 246.23C295.52 245.88 296.03 246.31 295.77 246.66V246.61Z" fill="#B97E4D"/>
<path d="M292.65 236.38C288.979 241.474 284.97 246.315 280.65 250.87C280.37 251.19 279.86 250.76 280.15 250.44C284.47 245.881 288.479 241.037 292.15 235.94C292.39 235.59 292.89 236.03 292.65 236.38Z" fill="#B97E4D"/>
<path d="M288.83 230.07C286.175 234.451 283.245 238.659 280.06 242.67C280.003 242.738 279.921 242.78 279.833 242.787C279.745 242.795 279.657 242.767 279.59 242.71C279.522 242.653 279.48 242.572 279.472 242.483C279.465 242.395 279.493 242.308 279.55 242.24C282.88 238.33 285.55 233.93 288.33 229.64C288.56 229.28 289.06 229.72 288.83 230.07Z" fill="#B97E4D"/>
<path d="M286.22 223.3C283.55 227.08 281.01 230.94 278.33 234.71C278.08 235.06 277.58 234.63 277.83 234.28C280.5 230.51 283.04 226.65 285.71 222.87C285.96 222.52 286.47 222.95 286.22 223.3Z" fill="#B97E4D"/>
<path d="M282.14 217.23C279.99 220.28 277.85 223.33 275.77 226.43C275.53 226.79 275.03 226.36 275.26 226C277.34 222.9 279.49 219.84 281.64 216.79C281.88 216.45 282.39 216.88 282.14 217.23Z" fill="#B97E4D"/>
<path d="M303.89 290.95C296.81 287.95 290.52 283.51 283.89 279.72C283.52 279.51 283.8 278.91 284.17 279.12C290.84 282.91 297.17 287.34 304.17 290.35C304.57 290.52 304.28 291.12 303.89 290.95Z" fill="#B97E4D"/>
<path d="M306.22 284.17C298.47 279.78 291.33 274.48 284.04 269.38C283.69 269.13 284.13 268.63 284.47 268.87C291.72 273.93 298.81 279.21 306.47 283.57C306.84 283.78 306.55 284.38 306.18 284.17H306.22Z" fill="#B97E4D"/>
<path d="M305.29 274.79C296.82 272.56 290.14 267.07 282.89 262.45C282.53 262.23 282.81 261.62 283.17 261.85C290.36 266.44 297.01 271.92 305.41 274.14C305.82 274.25 305.7 274.9 305.29 274.79Z" fill="#B97E4D"/>
<path d="M302.82 266.69C295.32 262.8 288.08 258.44 280.76 254.2C280.4 253.99 280.68 253.39 281.05 253.6C288.36 257.84 295.6 262.2 303.11 266.1C303.18 266.143 303.232 266.21 303.255 266.29C303.279 266.369 303.271 266.454 303.235 266.528C303.198 266.602 303.136 266.66 303.059 266.69C302.982 266.72 302.897 266.72 302.82 266.69Z" fill="#B97E4D"/>
<path d="M301.81 259.77C293.74 254.77 285.66 249.71 277.49 244.84C277.12 244.63 277.41 244.02 277.77 244.24C285.95 249.11 294.03 254.13 302.1 259.16C302.46 259.39 302.18 259.99 301.81 259.77V259.77Z" fill="#B97E4D"/>
<path d="M298.87 249.79C292.37 246.56 285.95 243.16 279.51 239.79C279.13 239.59 279.42 238.99 279.8 239.18C286.24 242.54 292.66 245.94 299.16 249.18C299.239 249.218 299.3 249.287 299.329 249.37C299.358 249.454 299.353 249.545 299.315 249.625C299.276 249.705 299.208 249.766 299.124 249.795C299.041 249.824 298.949 249.818 298.87 249.78V249.79Z" fill="#B97E4D"/>
<path d="M296.14 241.23C289.84 237.75 283.09 235.23 276.62 232.12C276.58 232.101 276.545 232.074 276.516 232.042C276.487 232.009 276.465 231.971 276.45 231.93C276.436 231.888 276.43 231.845 276.432 231.801C276.435 231.757 276.446 231.714 276.465 231.675C276.484 231.636 276.51 231.6 276.543 231.571C276.576 231.542 276.614 231.52 276.655 231.505C276.697 231.491 276.74 231.485 276.784 231.487C276.828 231.49 276.87 231.501 276.91 231.52C283.37 234.65 290.12 237.15 296.42 240.63C296.79 240.84 296.51 241.44 296.14 241.23V241.23Z" fill="#B97E4D"/>
<path d="M292.29 231.75C286.17 229.95 280.23 227.61 274.18 225.58C273.77 225.44 274.07 224.85 274.47 224.98C280.47 226.98 286.34 229.31 292.41 231.1C292.81 231.22 292.7 231.88 292.29 231.75V231.75Z" fill="#B97E4D"/>
<path d="M290.21 225.76C283.6 225.14 277.34 223.05 271.01 221.2C270.6 221.08 270.71 220.43 271.12 220.55C277.46 222.39 283.72 224.49 290.33 225.11C290.75 225.11 290.63 225.8 290.21 225.76Z" fill="#B97E4D"/>
<path d="M265.82 218.78C265.696 220.012 266.018 221.248 266.726 222.264C267.434 223.28 268.481 224.009 269.68 224.32C271.99 224.73 275.32 222.86 275.68 220.55C276.04 218.24 273.62 215.33 271.31 214.92C270.085 214.807 268.861 215.134 267.855 215.841C266.849 216.548 266.128 217.59 265.82 218.78V218.78Z" fill="#6B4C34"/>
<path d="M279.46 222.06C279.337 223.292 279.658 224.528 280.366 225.544C281.074 226.56 282.121 227.289 283.32 227.6C285.63 228.01 288.96 226.15 289.37 223.83C289.78 221.51 287.31 218.61 285 218.2C283.768 218.077 282.532 218.398 281.516 219.106C280.5 219.814 279.771 220.862 279.46 222.06V222.06Z" fill="#6B4C34"/>
<path d="M247.86 205.51C246.472 207.119 245.549 209.076 245.19 211.17C240.593 211.318 236.02 211.893 231.53 212.89C231.305 211.381 231.349 209.844 231.66 208.35C230.257 209.932 229.128 211.737 228.32 213.69C224.101 214.774 220.092 216.555 216.46 218.96C217.4 208.64 221.6 199.57 229.68 195.2C230.927 196.256 231.997 197.505 232.85 198.9C232.897 197.272 232.532 195.659 231.79 194.21C236.72 192.21 242.9 191.79 250.45 193.59C251.541 195.615 252.374 197.768 252.93 200C253.536 198.279 253.942 196.494 254.14 194.68C265.78 199.05 276.98 212.39 277.87 222.76C273.51 214.68 261.08 211.18 248.07 211.13C247.609 209.292 247.537 207.377 247.86 205.51V205.51Z" fill="#9CB560"/>
<path d="M254.57 201.73C257.951 202.592 261.154 204.044 264.03 206.02C266.559 207.729 268.866 209.744 270.9 212.02C273.796 215.189 276.16 218.806 277.9 222.73C275.746 219.109 273.175 215.753 270.24 212.73C266.44 208.86 261.07 204.73 254.24 203.03C248.06 201.594 241.596 201.994 235.64 204.18C231.664 205.612 227.823 207.392 224.16 209.5C227.584 206.927 231.333 204.819 235.31 203.23C241.414 200.723 248.152 200.198 254.57 201.73Z" fill="#8A9C4E"/>
<path d="M248.92 190.95C246.902 191.864 245.197 193.353 244.02 195.23C238.768 193.612 233.399 192.405 227.96 191.62C228.214 190.107 228.787 188.665 229.64 187.39C227.573 188.31 225.681 189.582 224.05 191.15C218.98 190.542 213.849 190.68 208.82 191.56C213.38 182.21 221.21 175.27 231.82 174.26C232.858 175.684 233.649 177.273 234.16 178.96C234.765 177.427 234.901 175.75 234.55 174.14C240.81 174.14 247.95 176.14 255.9 180.7C256.456 182.989 256.668 185.348 256.53 187.7C257.792 186.331 258.868 184.801 259.73 183.15C271.43 191.73 279.59 208.58 277.1 218.68C274.9 209.4 261.99 201.34 247.27 196.31C247.364 194.414 247.932 192.571 248.92 190.95V190.95Z" fill="#9CB560"/>
<path d="M257.8 189.96C261.279 192.007 264.408 194.596 267.07 197.63C269.314 200.159 271.245 202.949 272.82 205.94C274.977 209.908 276.422 214.223 277.09 218.69C275.848 214.355 274.074 210.19 271.81 206.29C268.257 200.032 263.166 194.784 257.02 191.04C250.465 187.309 243.099 185.233 235.56 184.99C230.612 184.819 225.657 185.026 220.74 185.61C225.581 184.502 230.535 183.968 235.5 184.02C243.324 184.022 251.012 186.069 257.8 189.96V189.96Z" fill="#8A9C4E"/>
<path d="M246.12 229.7C245.817 231.511 246.075 233.37 246.86 235.03C243.361 238.002 240.088 241.231 237.07 244.69C236.139 243.86 235.402 242.836 234.91 241.69C234.627 243.529 234.664 245.404 235.02 247.23C232.309 250.506 230.079 254.153 228.4 258.06C224 250.79 222.75 242.29 226.87 234.4C228.323 234.294 229.783 234.432 231.19 234.81C230.403 233.716 229.3 232.889 228.03 232.44C230.87 228.06 235.48 223.92 242.25 220.35C244.079 220.963 245.808 221.842 247.38 222.96C247.005 221.484 246.433 220.064 245.68 218.74C256.92 214.29 272.28 215.93 278.14 222.08C270.72 219.57 259.29 225.08 249.14 233.2C247.849 232.313 246.808 231.107 246.12 229.7V229.7Z" fill="#9CB560"/>
<path d="M249.46 223.05C252.445 221.511 255.655 220.451 258.97 219.91C261.73 219.435 264.537 219.301 267.33 219.51C271.04 219.726 274.683 220.596 278.09 222.08C274.509 221.052 270.814 220.478 267.09 220.37C261.115 220.138 255.179 221.418 249.83 224.09C244.269 227.048 239.497 231.293 235.91 236.47C233.545 239.853 231.439 243.41 229.61 247.11C231.042 243.238 232.922 239.546 235.21 236.11C238.76 230.606 243.667 226.108 249.46 223.05Z" fill="#8A9C4E"/>
<path d="M309.33 223.72C309.997 225.43 310.136 227.3 309.73 229.09C313.779 231.254 317.657 233.724 321.33 236.48C322.065 235.464 322.57 234.301 322.81 233.07C323.492 234.809 323.867 236.653 323.92 238.52C327.263 241.15 330.213 244.245 332.68 247.71C335.44 239.71 334.88 231.1 329.18 224.26C327.738 224.457 326.341 224.9 325.05 225.57C325.593 224.333 326.495 223.288 327.64 222.57C323.94 218.89 318.57 215.81 311.19 213.75C309.531 214.732 308.028 215.955 306.73 217.38C306.79 215.859 307.052 214.352 307.51 212.9C295.58 210.9 280.91 215.74 276.51 223C283.23 219 295.57 222 307.2 227.76C308.242 226.617 308.976 225.226 309.33 223.72Z" fill="#9CB560"/>
<path d="M304.67 217.92C301.413 217.044 298.039 216.683 294.67 216.85C291.875 216.975 289.105 217.435 286.42 218.22C282.827 219.206 279.44 220.828 276.42 223.01C279.695 221.247 283.179 219.903 286.79 219.01C292.582 217.52 298.658 217.52 304.45 219.01C310.533 220.737 316.112 223.899 320.72 228.23C323.744 231.037 326.552 234.069 329.12 237.3C326.903 233.812 324.289 230.594 321.33 227.71C316.704 223.077 310.968 219.707 304.67 217.92Z" fill="#8A9C4E"/>
<path d="M307.33 207.72C308.603 209.42 309.397 211.429 309.63 213.54C314.204 213.988 318.726 214.858 323.14 216.14C323.464 214.649 323.522 213.112 323.31 211.6C324.608 213.273 325.621 215.148 326.31 217.15C330.447 218.496 334.331 220.524 337.8 223.15C337.53 212.79 333.93 203.47 326.15 198.59C324.832 199.561 323.68 200.74 322.74 202.08C322.803 200.454 323.27 198.87 324.1 197.47C319.31 195.15 313.17 194.34 305.52 195.64C304.304 197.592 303.336 199.688 302.64 201.88C302.14 200.123 301.845 198.315 301.76 196.49C289.87 200.1 277.84 212.7 276.28 222.98C281.15 215.2 293.78 212.51 306.76 213.3C307.335 211.5 307.529 209.599 307.33 207.72V207.72Z" fill="#9CB560"/>
<path d="M300.88 203.52C297.443 204.156 294.148 205.402 291.15 207.2C288.515 208.749 286.083 210.62 283.91 212.77C280.829 215.746 278.249 219.201 276.27 223C278.652 219.511 281.435 216.313 284.56 213.47C288.56 209.85 294.22 206.08 301.12 204.82C307.38 203.786 313.805 204.599 319.61 207.16C323.487 208.848 327.205 210.879 330.72 213.23C327.479 210.45 323.88 208.116 320.02 206.29C314.088 203.385 307.393 202.416 300.88 203.52V203.52Z" fill="#8A9C4E"/>
<path d="M291.48 191.13C293.287 191.068 295.072 191.553 296.6 192.52C300.02 189.46 303.663 186.659 307.5 184.14C306.814 183.123 305.913 182.269 304.86 181.64C306.7 181.58 308.537 181.837 310.29 182.4C313.893 180.144 317.794 178.404 321.88 177.23C315.39 172.02 307.24 169.74 298.88 172.8C298.564 174.204 298.486 175.651 298.65 177.08C297.693 176.17 297.043 174.986 296.79 173.69C292.08 175.93 287.35 179.93 282.87 186.12C283.195 187.981 283.802 189.782 284.67 191.46C283.284 190.912 281.979 190.179 280.79 189.28C274.79 199.74 274.14 214.99 279.32 221.49C277.94 213.91 285.03 203.4 294.45 194.49C293.767 193.132 292.743 191.975 291.48 191.13V191.13Z" fill="#9CB560"/>
<path d="M284.47 193.59C282.531 196.319 281.027 199.331 280.01 202.52C279.15 205.157 278.607 207.886 278.39 210.65C278.072 214.301 278.411 217.979 279.39 221.51C278.897 217.862 278.87 214.165 279.31 210.51C279.971 204.597 282.091 198.941 285.48 194.05C289.19 188.965 294.044 184.824 299.65 181.96C303.302 180.06 307.093 178.439 310.99 177.11C306.962 178.034 303.053 179.417 299.34 181.23C293.429 184.044 288.317 188.293 284.47 193.59Z" fill="#8A9C4E"/>
<path d="M271.56 222.8C271.439 224.032 271.761 225.266 272.469 226.282C273.176 227.297 274.223 228.027 275.42 228.34C277.74 228.75 281.07 226.89 281.48 224.57C281.89 222.25 279.42 219.35 277.1 218.94C275.868 218.819 274.634 219.141 273.618 219.849C272.603 220.556 271.873 221.603 271.56 222.8V222.8Z" fill="#86593D"/>
<path d="M261.75 322.04C254.08 319.72 250.75 317.4 249.27 316.19C248.54 315.55 248.19 315.19 248.03 315.04L247.88 314.86C247.169 314.188 246.613 313.37 246.251 312.461C245.888 311.553 245.727 310.577 245.78 309.6C245.801 309.098 245.871 308.599 245.99 308.11C245.99 307.77 246.05 307.59 245.99 307.57C245.93 307.55 245.84 307.69 245.69 308.01C245.44 308.485 245.271 308.999 245.19 309.53L245.07 310.09V310.74C245.05 310.98 245.05 311.22 245.07 311.46L245.22 312.24C245.543 313.482 246.161 314.627 247.02 315.58L247.19 315.78C247.614 316.22 248.062 316.637 248.53 317.03C250.13 318.33 253.62 320.73 261.39 323.08C265.26 324.24 268.23 324.88 270.46 325.35C272.69 325.82 274.17 326.06 275.17 326.24L277.17 326.57C282.66 327.28 285.43 327.31 285.45 327.13C285.47 326.95 282.75 326.5 277.34 325.5L275.34 325.17C274.34 324.99 272.87 324.74 270.66 324.28C268.45 323.82 265.58 323.23 261.75 322.04Z" fill="#EFFFF8"/>
<path d="M322.46 324.83C316.844 326.124 311.125 326.927 305.37 327.23L302.9 327.34C296.15 327.64 292.76 327.28 292.73 327.53C293.539 327.827 294.389 327.996 295.25 328.03C297.803 328.317 300.371 328.451 302.94 328.43L305.43 328.31C311.245 328.019 317.023 327.223 322.7 325.93C332.42 323.62 336.93 321.23 339.15 320.12L341.36 318.92C343.559 317.55 345.575 315.907 347.36 314.03C348.47 312.7 348.97 312.03 348.89 311.95C348.65 311.72 346.64 314.61 340.81 317.95L338.66 319.12C336.48 320.23 332.02 322.55 322.46 324.83Z" fill="#EFFFF8"/>
<path d="M332.39 327.94C330.436 328.744 328.396 329.321 326.31 329.66C326.017 329.728 325.72 329.771 325.42 329.79C323 330.21 321.74 330.16 321.71 330.39C321.68 330.62 322.95 331 325.55 330.87C325.866 330.847 326.181 330.8 326.49 330.73C328.648 330.379 330.758 329.781 332.78 328.95C334.804 328.154 336.769 327.215 338.66 326.14L339.46 325.67C341.58 324.23 342.46 323.29 342.36 323.15C342.26 323.01 341.13 323.58 338.91 324.74L338.12 325.19C336.278 326.243 334.363 327.162 332.39 327.94V327.94Z" fill="#EFFFF8"/>
<path d="M268.63 331.09C267.29 330.87 266.3 330.67 265.57 330.49C264.84 330.31 264.35 330.2 264.02 330.11L263.38 329.93C261.58 329.54 260.65 329.35 260.57 329.55C260.49 329.75 261.3 330.27 263.07 330.97L263.74 331.16C264.07 331.25 264.57 331.4 265.33 331.56C266.09 331.72 267.1 331.94 268.45 332.16C271.16 332.58 272.52 332.72 273.2 332.81L273.87 332.89C277.61 333.04 277.68 332.55 274 331.81L273.33 331.73C272.65 331.64 271.3 331.51 268.63 331.09Z" fill="#EFFFF8"/>
<path d="M347.18 304.78L346.18 303.78C345.27 303.27 344.93 303.63 345.4 304.53L346.4 305.53L347.28 306.6C348.11 307.16 348.55 306.94 348.15 305.95L347.18 304.78Z" fill="#EFFFF8"/>
<path d="M63.1702 297.53C62.7102 297.46 62.2602 297.37 61.8202 297.32L60.5302 297.25C59.7343 297.273 58.9445 297.397 58.1802 297.62C56.9933 297.976 55.847 298.455 54.7602 299.05C53.8602 299.53 53.1102 299.88 52.4802 300.17C51.9741 300.383 51.4526 300.556 50.9202 300.69L49.9202 300.87H49.4202H49.2102C47.3949 300.793 45.5999 300.456 43.8802 299.87C42.6802 299.53 42.0502 299.43 42.0202 299.52C41.9902 299.61 42.5402 299.9 43.6802 300.42C44.2602 300.67 44.9802 300.97 45.8902 301.27C46.9611 301.653 48.0838 301.872 49.2202 301.92H49.4702H50.0502L51.1402 301.71C51.7274 301.565 52.3024 301.374 52.8602 301.14C53.5302 300.84 54.3202 300.46 55.2202 299.99C57.0302 299.1 59.4102 297.73 62.9202 298.56C64.1602 298.82 65.3902 299.19 66.6602 299.56C67.9677 299.902 69.3094 300.096 70.6602 300.14V300.14C72.9402 300.31 75.2002 300.24 77.4302 300.28C82.3602 300.2 84.7602 300.96 84.8302 300.69C84.8302 300.59 84.2702 300.36 83.0602 299.99C81.2251 299.519 79.3438 299.251 77.4502 299.19C75.1802 299.19 72.9502 299.19 70.7402 299.06C69.4863 299.015 68.2416 298.827 67.0302 298.5C65.7402 298.17 64.4802 297.8 63.1702 297.53Z" fill="#EFFFF8"/>
<path d="M195.19 250.48C193.474 250.329 191.744 250.46 190.07 250.87C188.64 251.2 187.44 251.56 186.43 251.87C185.036 252.339 183.613 252.717 182.17 253C181.655 253.091 181.133 253.142 180.61 253.15H180.38C179.809 253.168 179.238 253.145 178.67 253.08C178.18 252.985 177.696 252.862 177.22 252.71C176.8 252.53 176.38 252.42 176.04 252.23L175.1 251.73C174.04 251.05 173.49 250.68 173.42 250.73C173.35 250.78 173.77 251.3 174.78 252.17L175.69 252.81C176.083 253.057 176.494 253.274 176.92 253.46C177.431 253.673 177.955 253.85 178.49 253.99C179.117 254.111 179.752 254.178 180.39 254.19H180.64C181.214 254.177 181.785 254.12 182.35 254.02C183.84 253.726 185.309 253.339 186.75 252.86C187.75 252.55 188.93 252.2 190.31 251.86C191.863 251.479 193.467 251.351 195.06 251.48C196.64 251.794 198.175 252.301 199.63 252.99C200.793 253.521 202.001 253.946 203.24 254.26C204.157 254.476 205.098 254.58 206.04 254.57C206.665 254.534 207.287 254.454 207.9 254.33C208.9 254.13 209.31 253.98 209.54 253.92L209.77 253.86C210.818 253.485 211.886 253.171 212.97 252.92C213.732 252.756 214.512 252.696 215.29 252.74C216.53 252.82 217.16 253.03 217.2 252.91C217.24 252.79 216.68 252.44 215.36 252.16C214.532 252.006 213.685 251.982 212.85 252.09C211.707 252.243 210.577 252.483 209.47 252.81L209.25 252.88C209.02 252.88 208.58 253.08 207.69 253.26C206.301 253.57 204.859 253.549 203.48 253.2C202.304 252.896 201.156 252.491 200.05 251.99C198.503 251.277 196.869 250.769 195.19 250.48V250.48Z" fill="#EFFFF8"/>
<path d="M149.41 291.09C146.849 291.777 144.173 291.93 141.55 291.54C140.156 291.368 138.754 291.271 137.35 291.25H135.55L133.83 291.54C133.31 291.65 132.83 291.81 132.39 291.93C131.51 292.19 130.82 292.46 130.25 292.66C129.12 293.03 128.56 293.27 128.58 293.37C128.6 293.47 129.2 293.42 130.4 293.22C130.99 293.11 131.73 292.92 132.6 292.75C133.04 292.68 133.5 292.56 134.01 292.49L135.64 292.33H137.34C138.711 292.343 140.08 292.437 141.44 292.61C144.177 293.006 146.966 292.846 149.64 292.14C151.098 291.765 152.595 291.557 154.1 291.52C155.238 291.559 156.372 291.656 157.5 291.81C159.44 292.02 160.74 292.24 161.61 292.35L163.35 292.58L166.51 292.82C167.42 292.82 168.18 292.82 168.79 292.82C170 292.82 170.6 292.71 170.6 292.62C170.6 292.53 170 292.39 168.81 292.24L166.59 291.99L163.49 291.51L161.76 291.28C160.88 291.17 159.6 290.96 157.62 290.74C156.453 290.577 155.278 290.477 154.1 290.44C152.517 290.48 150.944 290.698 149.41 291.09V291.09Z" fill="#EFFFF8"/>
<path d="M204.58 321.6C203.091 321.509 201.596 321.572 200.12 321.79C198.85 321.97 197.77 322.18 196.86 322.36C195.03 322.71 193.86 322.92 193.02 323.01C192.18 323.1 191.82 323.11 191.62 323.13H191.42C189.771 323.282 188.109 323.161 186.5 322.77C185.42 322.5 184.87 322.34 184.82 322.44C184.77 322.54 185.25 322.86 186.32 323.33C187.957 323.976 189.711 324.275 191.47 324.21H191.68C191.89 324.21 192.32 324.21 193.15 324.07C193.98 323.93 195.24 323.77 197.06 323.41C199.504 322.842 202.012 322.596 204.52 322.68C205.934 322.756 207.334 323.001 208.69 323.41C209.89 323.76 210.95 324.08 211.87 324.3C213.177 324.627 214.523 324.769 215.87 324.72C216.72 324.66 217.15 324.64 217.35 324.61H217.56C219.84 324.25 221.46 323.89 222.56 323.84C223.66 323.79 224.24 323.84 224.26 323.68C224.28 323.52 223.73 323.37 222.56 323.26C220.845 323.21 219.13 323.3 217.43 323.53C216.898 323.618 216.359 323.662 215.82 323.66C214.561 323.715 213.302 323.587 212.08 323.28C211.19 323.06 210.17 322.75 208.94 322.39C207.521 321.964 206.058 321.699 204.58 321.6V321.6Z" fill="#EFFFF8"/>
<path d="M228.47 284.68C225.91 285.107 223.324 285.368 220.73 285.46C220.364 285.483 219.996 285.483 219.63 285.46C216.63 285.46 215.1 285.18 215.05 285.46C215 285.74 216.45 286.32 219.6 286.58C219.983 286.614 220.368 286.614 220.75 286.58C223.384 286.487 226.01 286.223 228.61 285.79C231.17 285.389 233.759 285.208 236.35 285.25L237.45 285.32C240.45 285.4 241.98 285.7 242.04 285.46C242.1 285.22 240.64 284.63 237.52 284.23L236.38 284.16C233.734 284.112 231.088 284.286 228.47 284.68Z" fill="#EFFFF8"/>
<path d="M379.12 285.23C376.845 285.866 374.475 286.096 372.12 285.91C371.831 285.885 371.544 285.842 371.26 285.78H371.14C370.542 285.712 369.951 285.598 369.37 285.44C368.943 285.35 368.522 285.233 368.11 285.09C367.44 284.89 367.11 284.83 367.02 284.92C366.93 285.01 367.26 285.24 367.88 285.62C368.262 285.873 368.671 286.081 369.1 286.24C369.692 286.503 370.308 286.707 370.94 286.85H371.07C371.381 286.913 371.694 286.959 372.01 286.99C374.489 287.195 376.984 286.958 379.38 286.29C381.685 285.675 384.055 285.339 386.44 285.29L387.44 285.34C388.045 285.346 388.649 285.383 389.25 285.45C389.78 285.45 390.2 285.57 390.55 285.61C391.25 285.71 391.63 285.71 391.66 285.61C391.69 285.51 391.38 285.32 390.66 285.04C390.245 284.855 389.813 284.711 389.37 284.61C388.752 284.434 388.119 284.313 387.48 284.25L386.42 284.23C383.956 284.273 381.505 284.608 379.12 285.23V285.23Z" fill="#EFFFF8"/>
<path d="M303.21 367.12C300.647 367.217 298.107 367.637 295.65 368.37L293.42 368.91L291.93 369.15C291.477 369.22 291.018 369.25 290.56 369.24H290.36C289.413 369.305 288.462 369.282 287.52 369.17C286.846 369.12 286.177 369.017 285.52 368.86C284.43 368.67 283.86 368.61 283.83 368.71C283.8 368.81 284.31 369.04 285.37 369.42C286.035 369.686 286.725 369.883 287.43 370.01C288.415 370.229 289.421 370.336 290.43 370.33H290.64C291.132 370.334 291.624 370.297 292.11 370.22L293.68 369.97L295.96 369.42C298.319 368.724 300.753 368.315 303.21 368.2C304.581 368.284 305.921 368.645 307.15 369.26C308.167 369.709 309.23 370.044 310.32 370.26C311.594 370.552 312.882 370.776 314.18 370.93L315.83 371.08C317.517 371.142 319.207 371.102 320.89 370.96C322.01 370.87 322.57 370.77 322.57 370.67C322.57 370.57 322.01 370.47 320.89 370.38C319.77 370.29 318.1 370.21 315.89 370L314.29 369.85C313.026 369.7 311.771 369.483 310.53 369.2C309.498 369 308.492 368.684 307.53 368.26C306.179 367.598 304.711 367.211 303.21 367.12V367.12Z" fill="#EFFFF8"/>
<path d="M352.66 352.17C350.773 352.436 348.904 352.81 347.06 353.29C345.72 353.61 344.84 353.76 344.25 353.86L343.06 354.01C341.838 354.194 340.606 354.301 339.37 354.33C338.53 354.33 338.1 354.44 338.09 354.54C338.08 354.64 338.49 354.76 339.33 354.91C340.601 355.124 341.894 355.185 343.18 355.09L344.42 354.93C345.03 354.83 345.96 354.67 347.31 354.34C349.122 353.875 350.958 353.511 352.81 353.25C354.633 352.972 356.487 352.972 358.31 353.25C359.65 353.43 360.55 353.6 361.15 353.7L362.35 353.92C365.7 354.39 367.44 354.26 367.44 354.08C367.44 353.9 365.81 353.61 362.55 352.85L361.34 352.63C360.74 352.53 359.83 352.36 358.44 352.17C356.524 351.887 354.576 351.887 352.66 352.17V352.17Z" fill="#EFFFF8"/>
<path d="M141.49 337.16C136.59 337.99 134.15 337.92 132.95 337.77C132.597 337.757 132.245 337.714 131.9 337.64H131.76L130.6 337.48C130.24 337.42 129.92 337.32 129.6 337.25L128.75 337.06L128.09 336.84C127.29 336.57 126.85 336.48 126.81 336.57C126.77 336.66 127.1 336.92 127.86 337.37C128.05 337.48 128.26 337.61 128.5 337.73L129.34 338.06C129.65 338.17 129.99 338.32 130.34 338.43L131.55 338.71H131.71C132.076 338.784 132.447 338.828 132.82 338.84C135.774 339.044 138.743 338.836 141.64 338.22C144.465 337.642 147.33 337.278 150.21 337.13C150.82 337.13 151.13 337.13 151.28 337.13H151.43C154.77 337.06 156.43 337.53 156.5 337.27C156.57 337.01 154.96 336.27 151.5 336.04H151.34C150.97 336.015 150.599 336.015 150.23 336.04C147.293 336.194 144.371 336.569 141.49 337.16V337.16Z" fill="#EFFFF8"/>
<path d="M222.31 376.45C222.24 368.64 207.47 366.75 195.47 369C183.47 371.25 188.13 385.26 204.47 384.92C220.81 384.58 222.34 380.59 222.31 376.45Z" fill="#DAF1E8"/>
<path d="M413.13 325.93C413.13 318.12 403.19 316.23 395.13 318.48C387.07 320.73 390.22 334.74 401.13 334.4C412.04 334.06 413.16 330.07 413.13 325.93Z" fill="#DAF1E8"/>
<path d="M114.77 250.23C114.7 242.42 98.12 240.53 84.65 242.78C71.18 245.03 76.42 259.04 94.75 258.7C113.08 258.36 114.81 254.36 114.77 250.23Z" fill="#DAF1E8"/>
</g>
<defs>
<clipPath id="clip0">
<rect width="420.04" height="388.46" fill="white"/>
</clipPath>
</defs>
</svg>
